<svg xmlns="http://www.w3.org/2000/svg" viewBox="0 0 806 460.99"><g id="Слой_2" data-name="Слой 2"><g id="Слой_1-2" data-name="Слой 1"><path d="M751,303c-17.54-36.73-50.63-77.73-76-109-43-53-89.76-84.41-104-95l-.84-.61c-.41-1.06-.8-2.18-1.16-3.39-1.33-4.49-1.33-7-1-9,.72-4.34,3.27-8.19,9-13,5.33-4.47,11.43-8.09,21-12,10.44-4.25,19.62-6.64,30-13a15.1,15.1,0,0,0,6-6c3-5.78.62-12.28,0-14-1.35-3.74-5.71-12-30-20C595.9,5.33,578.14.2,553,0a160.76,160.76,0,0,0-44,5c-12.19,3.21-21.63,7.34-30,11a247.87,247.87,0,0,0-24.75,12.6c-9.19,5.34-13.79,8-14.25,9.4C392,21,346.58,19.6,293,17c-33.38-1.6-73.75,1.22-121.9,19.15C151.59,43.42,126,53,100,75,58.12,110.58,41.74,156.3,35.05,182l0,0C7,208,0,230.1,0,246c0,11.56,4.73,25.28,18.38,33.1C27,284.06,32,286,56,284c21-1.74,33.49-12.81,55-22a264.16,264.16,0,0,1,55-17c4.8-.95,22.73-3.39,47-5-1.59,5.47,5.27,12.31,19,28,2.69,3.08,14,15.78,34,30a232.37,232.37,0,0,0,52,28c8.38,3.16,21.26,6.11,47,12,0,0,35.67,8.18,53,2,2.15-.76,7.5-2.67,10.28-7.74a14.91,14.91,0,0,0,1.72-6.76,16.75,16.75,0,0,0-4-10.5,23.2,23.2,0,0,0-7-6c-14.58-8.27-37.85-30.05-41-33-9.75-9.12-14.31-15.74-18-20-.2-.22-.41-.44-.61-.67L362,256a908,908,0,0,1,124,41.61c83,34.39,100.5,64,117,60.39,5.94-1.29,17-7.78,15-16-3-12-18-44-53-76-20.94-19.14-36-33-54.85-45.34-12.49-8.17-24-13.62-34.15-18.66a509.91,509.91,0,0,0-48-21,446.62,446.62,0,0,0-77.29-20.87C320.76,154.87,298.86,153,255,153c-25.79,0-47.31-.36-66.79-.28L189,152c18-16,85-41,181-30,67.82,7.77,144,49,167,63,18.84,11.47,67.19,48.64,112,92,62,60,111.53,144.32,119,163,3.3,8.25,8.64,19.91,20,20.93a13.4,13.4,0,0,0,12-5.68C802.49,451.7,806,453,806,441,806,426.7,783,370,751,303Z"/></g></g></svg>