<svg xmlns="http://www.w3.org/2000/svg" viewBox="0 0 416.4 238.11"><defs><style>.cls-1{fill:#fff;}</style></defs><g id="Слой_2" data-name="Слой 2"><g id="Слой_1-2" data-name="Слой 1"><path class="cls-1" d="M388,156.55c-9.07-19-26.16-40.16-39.27-56.32C326.51,72.85,302.35,56.62,295,51.15l-.43-.31c-.21-.55-.41-1.13-.6-1.75a9.91,9.91,0,0,1-.52-4.65c.38-2.25,1.69-4.24,4.65-6.72a38.86,38.86,0,0,1,10.85-6.2c5.4-2.2,10.14-3.43,15.5-6.71a7.88,7.88,0,0,0,3.1-3.1c1.53-3,.32-6.35,0-7.24-.69-1.93-3-6.17-15.5-10.33A85,85,0,0,0,285.7,0,82.71,82.71,0,0,0,263,2.59a101.54,101.54,0,0,0-15.5,5.68,129.26,129.26,0,0,0-12.78,6.51,52.78,52.78,0,0,0-7.25,4.65.35.35,0,0,1-.36.12c-24.71-8.7-48.11-9.43-75.7-10.76a154.1,154.1,0,0,0-63,9.89c-10.08,3.75-23.33,8.69-36.74,20.07C30,57.13,21.56,80.75,18.11,94l0,0C3.62,107.47,0,118.87,0,127.1c0,6,2.44,13.06,9.5,17.1,4.47,2.55,7,3.56,19.43,2.53,10.83-.9,17.3-6.62,28.42-11.37a136.25,136.25,0,0,1,28.41-8.78c2.45-.49,11.54-1.72,23.86-2.55a.31.31,0,0,1,.34.35c-.42,2.77,3.12,6.34,9.9,14.08A101.85,101.85,0,0,0,137.42,154a121,121,0,0,0,26.87,14.47c4.33,1.63,11,3.15,24.28,6.2,0,0,18.43,4.22,27.38,1a9.37,9.37,0,0,0,5.31-4,7.63,7.63,0,0,0,.89-3.49,8.61,8.61,0,0,0-2.07-5.43,11.91,11.91,0,0,0-3.61-3.09c-7.54-4.28-19.56-15.53-21.18-17.05a94.85,94.85,0,0,1-9.3-10.34l-.32-.34,1.35.34a469.52,469.52,0,0,1,64.06,21.5C294,171.53,303,186.81,311.53,185c3.07-.67,8.81-4,7.75-8.27-1.55-6.2-9.3-22.73-27.39-39.26-10.81-9.89-18.57-17-28.33-23.43a161.15,161.15,0,0,0-17.65-9.63,260.29,260.29,0,0,0-24.79-10.85,230.43,230.43,0,0,0-39.93-10.79c-15.48-2.72-26.79-3.68-49.45-3.68-13.32,0-24.44-.19-34.5-.15l.4-.37c9.3-8.26,43.92-21.18,93.51-15.49,35,4,74.4,25.31,86.28,32.54,9.73,5.93,34.71,25.13,57.86,47.53,32,31,57.62,74.56,61.48,84.21,1.57,3.93,4,9.36,9,10.59a7.43,7.43,0,0,0,7.59-2.83c1.31-1.69,3-1.18,3-7.24C416.4,220.44,404.52,191.16,388,156.55Z"/></g></g></svg>