<svg id="Слой_1" data-name="Слой 1" xmlns="http://www.w3.org/2000/svg" viewBox="0 0 530 530"><defs><style>.cls-1{fill:#fff;}</style></defs><circle class="cls-1" cx="265" cy="265" r="265"/><path class="cls-1" d="M806,249" transform="translate(-350 -128)"/><path d="M778.76,421.43c-9.06-19-26.15-40.16-39.26-56.31-22.22-27.38-46.37-43.61-53.73-49.08l-.43-.32c-.21-.55-.42-1.12-.6-1.75a9.89,9.89,0,0,1-.52-4.65c.37-2.24,1.69-4.23,4.65-6.71a38.62,38.62,0,0,1,10.85-6.2c5.39-2.2,10.14-3.43,15.5-6.72a7.81,7.81,0,0,0,3.1-3.1c1.52-3,.32-6.34,0-7.23-.7-1.94-3-6.18-15.5-10.33a85.26,85.26,0,0,0-26.35-4.14,82.75,82.75,0,0,0-22.73,2.59,100.75,100.75,0,0,0-15.5,5.68,124.74,124.74,0,0,0-12.78,6.51,52.16,52.16,0,0,0-7.26,4.65.38.38,0,0,1-.36.12c-24.7-8.7-48.11-9.43-75.69-10.76a154,154,0,0,0-63,9.89c-10.08,3.75-23.32,8.68-36.73,20.07-21.64,18.37-30.1,42-33.56,55.26l0,0c-14.47,13.43-18.08,24.84-18.08,33.06,0,6,2.44,13.06,9.49,17.1,4.47,2.56,7,3.57,19.44,2.54,10.82-.91,17.3-6.63,28.41-11.37a136.32,136.32,0,0,1,28.42-8.78c2.45-.49,11.53-1.73,23.86-2.56a.31.31,0,0,1,.33.36c-.41,2.76,3.13,6.33,9.9,14.08a101.68,101.68,0,0,0,17.57,15.5,120.1,120.1,0,0,0,26.86,14.46c4.33,1.63,11,3.16,24.29,6.2,0,0,18.42,4.23,27.38,1a9.37,9.37,0,0,0,5.31-4,7.63,7.63,0,0,0,.89-3.49,8.69,8.69,0,0,0-2.07-5.43,11.72,11.72,0,0,0-3.62-3.1c-7.53-4.27-19.55-15.53-21.18-17a96.28,96.28,0,0,1-9.3-10.33l-.31-.35,1.35.35a469.48,469.48,0,0,1,64.05,21.49c42.89,17.77,51.93,33.06,60.45,31.21,3.07-.67,8.81-4,7.75-8.27-1.55-6.2-9.3-22.73-27.38-39.26-10.82-9.9-18.57-17.05-28.33-23.43a162.31,162.31,0,0,0-17.65-9.64,262.83,262.83,0,0,0-24.8-10.85A230.38,230.38,0,0,0,572,347.62c-15.47-2.72-26.79-3.68-49.44-3.68-13.33,0-24.45-.19-34.51-.15l.41-.37c9.3-8.27,43.91-21.18,93.51-15.5,35,4,74.39,25.32,86.28,32.55,9.73,5.92,34.71,25.13,57.86,47.53,32,31,57.61,74.56,61.48,84.21,1.57,3.93,4,9.36,9,10.59a7.4,7.4,0,0,0,7.58-2.84c1.32-1.69,3-1.18,3-7.23C807.18,485.33,795.3,456.05,778.76,421.43Z" transform="translate(-350 -128)"/></svg>